<?xml version="1.0" encoding="UTF-8" standalone="no"?>
<!-- Created with Inkscape (http://www.inkscape.org/) -->

<svg
   width="4535.4331"
   height="2373.5432"
   viewBox="0 0 1200 627.99996"
   version="1.1"
   id="svg5"
   inkscape:version="1.1.2 (0a00cf5339, 2022-02-04, custom)"
   sodipodi:docname="logo_bg.svg"
   inkscape:export-filename="D:\Source\GitHubClones\crypto-token-price-embed\docs\logo_bg.png"
   inkscape:export-xdpi="104.445"
   inkscape:export-ydpi="104.445"
   xmlns:inkscape="http://www.inkscape.org/namespaces/inkscape"
   xmlns:sodipodi="http://sodipodi.sourceforge.net/DTD/sodipodi-0.dtd"
   xmlns="http://www.w3.org/2000/svg"
   xmlns:svg="http://www.w3.org/2000/svg">
  <sodipodi:namedview
     id="namedview7"
     pagecolor="#ffffff"
     bordercolor="#111111"
     borderopacity="1"
     inkscape:pageshadow="0"
     inkscape:pageopacity="0"
     inkscape:pagecheckerboard="1"
     inkscape:document-units="mm"
     showgrid="false"
     inkscape:zoom="0.13653694"
     inkscape:cx="2497.4926"
     inkscape:cy="1516.0732"
     inkscape:window-width="1920"
     inkscape:window-height="1017"
     inkscape:window-x="-8"
     inkscape:window-y="32"
     inkscape:window-maximized="1"
     inkscape:current-layer="layer1"
     units="px"
     width="256px"
     lock-margins="true"
     fit-margin-top="0"
     fit-margin-left="0"
     fit-margin-right="0"
     fit-margin-bottom="0" />
  <defs
     id="defs2">
    <inkscape:path-effect
       effect="bspline"
       id="path-effect7658"
       is_visible="true"
       lpeversion="1"
       weight="33.333333"
       steps="2"
       helper_size="0"
       apply_no_weight="true"
       apply_with_weight="true"
       only_selected="false" />
    <inkscape:path-effect
       effect="bspline"
       id="path-effect10453"
       is_visible="true"
       lpeversion="1"
       weight="33.333333"
       steps="2"
       helper_size="0"
       apply_no_weight="true"
       apply_with_weight="true"
       only_selected="false" />
  </defs>
  <g
     inkscape:groupmode="layer"
     id="layer2"
     inkscape:label="bg"
     transform="translate(101.73529,162.77646)">
    <rect
       style="opacity:1;fill:#f5c600;fill-opacity:1;stroke:none;stroke-width:4.32427;stroke-linecap:round;stroke-linejoin:round;paint-order:stroke fill markers"
       id="rect1045"
       width="1200"
       height="628"
       x="-101.73529"
       y="-162.77646"
       ry="0.348649" />
  </g>
  <g
     inkscape:label="Layer 1"
     inkscape:groupmode="layer"
     id="layer1"
     transform="translate(92.032627,163.04987)">
    <g
       id="g1176"
       transform="matrix(2.589946,0,0,2.589946,72.578433,67.395605)">
      <path
         id="path12401"
         style="font-size:33.3627px;line-height:1.25;font-family:'Eras Bold ITC';-inkscape-font-specification:'Eras Bold ITC';letter-spacing:0px;word-spacing:0px;stroke-width:0.265066"
         d="m 39.372632,13.353355 c -1.540703,0 -3.420305,0.04098 -5.640241,0.123761 -2.219936,0.0663 -3.968097,0.100116 -5.243731,0.100116 -1.325333,0 -3.081365,-0.02515 -5.268165,-0.07489 0.01655,1.623539 0.02442,2.791604 0.02442,3.503965 0,0.94431 -0.0079,1.88883 -0.02442,2.833128 l -0.27354,8.796569 -0.645612,12.425086 -0.21599,2.761394 c -1.486135,-0.141308 -2.965684,-0.316053 -4.445188,-0.491108 1.544945,1.883279 3.090135,3.767095 4.552394,5.93112 1.462257,2.164024 2.841655,4.608913 4.221314,7.053655 1.592857,-2.405083 3.185355,-4.810145 4.865347,-6.914916 1.67999,-2.104766 3.4475,-3.909193 5.214565,-5.713552 -1.527053,0.117449 -3.053919,0.234184 -4.57447,0.318474 0.0072,-1.566688 0.113761,-5.760791 0.321626,-12.636351 0.115963,-3.909734 0.282044,-7.463505 0.497412,-10.660883 l 2.0874,-0.148987 c 0.646101,-0.03314 1.267126,-0.04967 1.863527,-0.04967 0.612969,0 1.159217,0.04088 1.63965,0.123761 0.480434,0.08283 0.919637,0.26544 1.317239,0.547077 0.3976,0.281636 0.688044,0.646065 0.870276,1.093365 0.182237,0.430733 0.272749,0.927399 0.272749,1.490664 0,1.15967 -0.414015,2.145918 -1.242348,2.957675 -0.811766,0.795202 -2.053816,1.192689 -3.727055,1.192689 -0.795198,0 -1.557905,-0.07478 -2.286839,-0.223876 0.231933,0.728938 0.530247,1.847417 0.894716,3.354978 0.364464,1.507575 0.613191,2.64258 0.745722,3.404642 1.176236,0.198804 2.21128,0.297975 3.105877,0.297975 2.435304,0 4.630539,-0.455737 6.585407,-1.366903 1.954867,-0.911165 3.470833,-2.286232 4.547667,-4.125139 1.076835,-1.838899 1.615213,-3.868059 1.615213,-6.087994 0,-1.076839 -0.140891,-2.129197 -0.422524,-3.156328 -0.281632,-1.043689 -0.704309,-1.970897 -1.267578,-2.782666 -0.563266,-0.81177 -1.275594,-1.516233 -2.137063,-2.11263 -0.86147,-0.612973 -1.830392,-1.060047 -2.907226,-1.341672 -1.06027,-0.281641 -2.700594,-0.422527 -4.920531,-0.422527 z" />
      <path
         d="m 54.479015,47.960923 0.768945,-11.013281 0.248047,-6.325196 q 0.0248,-1.711523 0.0248,-3.49746 0,-1.810743 -0.04961,-4.489649 3.001367,0.04961 4.7625,0.04961 2.058789,0 4.737695,-0.04961 l -0.09922,2.80293 q 0.967383,-1.091406 1.5875,-1.612305 0.620118,-0.545703 1.413868,-0.967383 0.79375,-0.446484 1.661914,-0.644921 0.868164,-0.223243 1.810742,-0.223243 0.892969,0 1.984375,0.248047 0.0248,2.703711 0.124023,4.464844 l 0.173633,3.819922 q -1.364258,-0.396875 -2.554883,-0.396875 -1.488281,0 -2.579687,0.446484 -1.066602,0.42168 -1.909961,1.314648 -0.818555,0.868165 -1.314649,2.182813 -0.496093,1.314648 -0.694531,4.167187 -0.198437,2.852539 -0.198437,6.523633 0,1.289844 0.09922,3.199805 -2.406054,-0.04961 -4.836914,-0.04961 -2.406054,0 -5.159374,0.04961 z"
         id="path7517"
         style="font-size:50.8px;line-height:1.25;font-family:'Eras Bold ITC';-inkscape-font-specification:'Eras Bold ITC';letter-spacing:0px;word-spacing:0px;stroke-width:0.264583" />
      <path
         d="m 79.116053,23.367954 q 0.148829,-2.549271 0.148829,-4.027419 0,-0.42845 -0.02481,-1.156813 3.001367,0.04285 5.035351,0.04285 2.80293,0 4.911328,-0.04285 -0.07441,0.664096 -0.09922,1.113967 l -0.148828,2.656384 q -0.04961,0.599828 -0.04961,1.413881 -2.455664,-0.04284 -4.71289,-0.04284 -2.331641,0 -5.060157,0.04284 z m -1.562695,24.592969 q 0.347266,-2.613539 0.520899,-4.305912 0.173632,-1.692374 0.32246,-4.327334 0.173633,-2.634961 0.297657,-5.826906 0.124023,-3.191944 0.198437,-7.412166 3.22461,0.04284 5.159375,0.04284 1.761133,0 5.060156,-0.04284 -0.421679,4.048842 -0.620117,7.112252 -0.173633,3.06341 -0.223242,6.491002 -0.09922,6.083975 -0.09922,8.269064 -2.951758,-0.04284 -5.084961,-0.04284 -2.108398,0 -5.531444,0.04284 z"
         id="path7519"
         style="font-size:50.8px;line-height:1.25;font-family:'Eras Bold ITC';-inkscape-font-specification:'Eras Bold ITC';letter-spacing:0px;word-spacing:0px;stroke-width:0.245884" />
      <path
         d="m 113.31573,40.048228 q -0.12402,0.992187 -0.59531,3.646289 l -0.64492,3.96875 q -3.89434,0.942578 -7.61504,0.942578 -2.70371,0 -4.737694,-0.545703 Q 97.316711,47.41522 95.40675,45.77811 93.44718,44.091392 92.554211,41.784556 91.48761,39.080845 91.48761,35.732212 q 0,-3.075781 1.041797,-5.92832 1.041797,-2.852539 3.075781,-4.688086 2.033984,-1.860352 4.514452,-2.480469 2.48047,-0.644922 5.48184,-0.644922 1.76113,0 3.54707,0.198438 1.78593,0.173633 4.41523,0.79375 l 0.0496,0.570508 q 0.0744,0.892968 0.0992,1.835546 0.0496,0.917774 0.17363,2.926954 l 0.14883,2.207617 q -3.54707,-1.240235 -6.27559,-1.240235 -1.95957,0 -3.44785,0.768946 -1.46347,0.74414 -2.18281,2.182812 -0.69453,1.413867 -0.69453,3.299024 0,1.90996 0.62012,3.199804 0.64492,1.289844 2.03398,1.934766 1.38906,0.644922 3.05098,0.644922 0.84336,0 1.98437,-0.173633 1.16582,-0.173633 2.00918,-0.372071 0.86817,-0.223242 2.18281,-0.719335 z"
         id="path7521"
         style="font-size:50.8px;line-height:1.25;font-family:'Eras Bold ITC';-inkscape-font-specification:'Eras Bold ITC';letter-spacing:0px;word-spacing:0px;stroke-width:0.264583" />
      <path
         d="m 142.43644,40.469907 q -0.32246,1.488281 -1.24024,7.19336 -2.87734,0.570507 -4.83691,0.74414 -1.95957,0.198438 -3.96875,0.198438 -2.95176,0 -5.43223,-0.42168 -2.48047,-0.396875 -4.29121,-1.438672 -1.78594,-1.041797 -3.00137,-2.579687 -1.21543,-1.562696 -1.86035,-3.695899 -0.62012,-2.133203 -0.62012,-4.390429 0,-3.175 1.26504,-6.201172 1.26504,-3.050977 3.24942,-4.7625 2.00918,-1.711524 4.61367,-2.430859 2.60449,-0.719336 5.33301,-0.719336 2.82773,0 5.38261,0.669726 2.57969,0.644922 4.36563,2.282031 1.78594,1.63711 2.53008,3.695899 0.76894,2.058789 0.76894,4.440039 0,1.413867 -0.32246,3.150195 l -17.38808,0.02481 q -0.0248,0.396875 -0.0248,0.719336 0,2.678906 1.90996,3.943945 1.90996,1.265039 4.66328,1.265039 1.63711,0 3.72071,-0.37207 2.10839,-0.396875 5.18418,-1.314649 z m -15.25489,-8.036718 h 8.18555 q 0.0248,-0.42168 0.0248,-0.719336 0,-1.289844 -0.47128,-2.207617 -0.44649,-0.917774 -1.31465,-1.339454 -0.84336,-0.421679 -1.90996,-0.421679 -0.74414,0 -1.43868,0.248047 -0.69453,0.223242 -1.26503,0.694531 -0.54571,0.446484 -0.91778,1.041797 -0.37207,0.595312 -0.5457,1.16582 -0.17363,0.545703 -0.34727,1.537891 z"
         id="path7523"
         style="font-size:50.8px;line-height:1.25;font-family:'Eras Bold ITC';-inkscape-font-specification:'Eras Bold ITC';letter-spacing:0px;word-spacing:0px;stroke-width:0.264583" />
      <path
         d="m 161.03995,47.960923 q 0.5209,-5.035352 0.71934,-8.086328 0.29766,-4.514453 0.57051,-12.402344 0.27285,-7.912695 0.27285,-10.641211 v -2.728515 q 7.46621,0.04961 13.89062,0.04961 6.47403,0 12.45196,-0.04961 -0.39688,5.705078 -0.39688,7.466211 l -2.15801,-0.07441 -1.73632,-0.02481 -1.73633,-0.02481 h -4.88653 q -0.84336,0 -4.93613,0.04961 l -0.22324,5.779492 3.59668,0.07441 h 4.01836 q 1.73633,0 5.3082,-0.07441 -0.27285,4.688086 -0.27285,7.342187 -3.99355,-0.124023 -5.92832,-0.124023 -3.27422,0 -7.14375,0.124023 l -0.24805,8.929687 -0.0248,3.323829 v 1.091406 l -5.33301,-0.04961 q -0.62012,0 -5.8043,0.04961 z"
         id="path7525"
         style="font-size:50.8px;line-height:1.25;font-family:'Eras Bold ITC';-inkscape-font-specification:'Eras Bold ITC';letter-spacing:0px;word-spacing:0px;stroke-width:0.264583" />
      <path
         d="m 191.79776,47.960923 0.76894,-11.013281 0.24805,-6.325196 q 0.0248,-1.711523 0.0248,-3.49746 0,-1.810743 -0.0496,-4.489649 3.00137,0.04961 4.7625,0.04961 2.05879,0 4.7377,-0.04961 l -0.0992,2.80293 q 0.96738,-1.091406 1.5875,-1.612305 0.62012,-0.545703 1.41387,-0.967383 0.79375,-0.446484 1.66191,-0.644921 0.86816,-0.223243 1.81074,-0.223243 0.89297,0 1.98438,0.248047 0.0248,2.703711 0.12402,4.464844 l 0.17363,3.819922 q -1.36425,-0.396875 -2.55488,-0.396875 -1.48828,0 -2.57969,0.446484 -1.0666,0.42168 -1.90996,1.314648 -0.81855,0.868165 -1.31465,2.182813 -0.49609,1.314648 -0.69453,4.167187 -0.19843,2.852539 -0.19843,6.523633 0,1.289844 0.0992,3.199805 -2.40605,-0.04961 -4.83691,-0.04961 -2.40605,0 -5.15937,0.04961 z"
         id="path7527"
         style="font-size:50.8px;line-height:1.25;font-family:'Eras Bold ITC';-inkscape-font-specification:'Eras Bold ITC';letter-spacing:0px;word-spacing:0px;stroke-width:0.264583" />
      <path
         d="m 215.98233,29.853501 q 0.47128,-2.455664 0.59531,-3.373437 0.12402,-0.942578 0.39687,-2.926953 7.14375,-1.562696 12.27832,-1.562696 2.92696,0 5.35782,0.669727 2.43086,0.644922 3.79511,2.108398 1.36426,1.463477 1.36426,4.191992 0,1.389063 -0.37207,6.250782 -0.37207,4.861718 -0.57051,12.749609 -2.43086,-0.04961 -4.83691,-0.04961 -2.33164,0 -4.96094,0.04961 0.34727,-2.728516 0.76895,-11.261328 -0.94258,0.446484 -1.48828,0.644922 -0.5209,0.198437 -1.86036,0.595312 -1.33945,0.396875 -2.10839,0.669727 -0.74415,0.272851 -1.31465,0.694531 -0.54571,0.42168 -0.79375,0.868164 -0.22325,0.446484 -0.22325,0.992187 0,0.84336 0.66973,1.438672 0.66973,0.595313 2.1332,0.595313 0.5209,0 1.11622,-0.07441 0.59531,-0.09922 1.6371,-0.446485 -0.71933,1.909961 -1.71152,5.581055 -2.1332,0.347266 -4.04316,0.347266 -3.07578,0 -5.13457,-0.84336 -2.03399,-0.868164 -3.1502,-2.778125 -1.0914,-1.909961 -1.0914,-3.819922 0,-1.16582 0.39687,-2.282031 0.42168,-1.116211 1.28984,-2.182812 0.86817,-1.066602 2.03399,-1.810742 1.16582,-0.768946 3.175,-1.438672 2.03398,-0.669727 5.13457,-1.265039 1.28984,-0.248047 2.35644,-0.520899 1.09141,-0.297656 1.53789,-0.496093 0.47129,-0.223243 0.74415,-0.496094 0.29765,-0.297656 0.42167,-0.595313 0.12403,-0.322461 0.12403,-0.669726 0,-0.942578 -0.79375,-1.438672 -0.79375,-0.520899 -2.33164,-0.520899 -4.26641,0 -10.54199,2.406055 z"
         id="path7529"
         style="font-size:50.8px;line-height:1.25;font-family:'Eras Bold ITC';-inkscape-font-specification:'Eras Bold ITC';letter-spacing:0px;word-spacing:0px;stroke-width:0.264583" />
      <path
         d="m 244.48291,47.960923 0.69453,-11.955859 0.39688,-9.351367 0.0496,-4.01836 q 2.72851,0.04961 4.81211,0.04961 2.35644,0 4.58886,-0.04961 l -0.17363,3.299024 q 0.76895,-0.992188 1.28984,-1.513086 0.54571,-0.545703 1.31465,-1.016993 0.76895,-0.496093 1.5875,-0.768945 0.81856,-0.297656 1.83555,-0.471289 1.01699,-0.173633 2.1332,-0.173633 1.26504,0 2.33164,0.223243 1.06661,0.198437 1.83555,0.520898 0.76895,0.322461 1.33945,0.744141 0.57051,0.421679 0.99219,0.967382 0.44649,0.520899 1.01699,1.537891 1.09141,-1.5875 2.30684,-2.406055 1.21543,-0.818554 2.75332,-1.190625 1.56269,-0.396875 3.1998,-0.396875 2.15801,0 4.06797,0.620118 1.90996,0.620117 3.12539,2.158007 1.24024,1.513086 1.24024,3.943946 0,1.141015 -0.17364,3.447851 -0.14882,2.306836 -0.44648,7.9375 -0.27285,5.605859 -0.29766,7.863086 -2.28203,-0.04961 -4.41523,-0.04961 -2.60449,0 -5.45703,0.04961 0.24805,-3.150196 0.49609,-7.887891 0.27285,-4.7625 0.27285,-6.598047 0,-1.5875 -0.37207,-2.356445 -0.37207,-0.79375 -0.96738,-1.066601 -0.57051,-0.297657 -1.26504,-0.297657 -0.74414,0 -1.28984,0.272852 -0.59531,0.297656 -1.0418,0.917773 -0.59531,0.818555 -0.96738,2.058789 -0.29766,0.967383 -0.47129,2.951758 -0.17363,2.033985 -0.27285,5.357813 l -0.19844,6.647656 q -2.6541,-0.04961 -4.7873,-0.04961 -2.18282,0 -5.13457,0.04961 0.22324,-2.207617 0.52089,-7.416602 0.29766,-5.208984 0.29766,-6.970117 0,-1.488281 -0.29766,-2.232422 -0.29765,-0.74414 -0.84336,-1.190625 -0.52089,-0.446484 -1.41386,-0.446484 -0.96739,0 -1.68672,0.570508 -0.71934,0.570508 -1.24024,1.637109 -0.49609,1.066602 -0.71933,2.951758 -0.19844,1.860351 -0.37207,5.705078 -0.17363,3.844726 -0.22324,7.391797 -3.00137,-0.04961 -4.86172,-0.04961 -2.05879,0 -5.10977,0.04961 z"
         id="path7531"
         style="font-size:50.8px;line-height:1.25;font-family:'Eras Bold ITC';-inkscape-font-specification:'Eras Bold ITC';letter-spacing:0px;word-spacing:0px;stroke-width:0.264583" />
      <path
         d="m 316.3173,40.469907 q -0.32247,1.488281 -1.24024,7.19336 -2.87734,0.570507 -4.83691,0.74414 -1.95957,0.198438 -3.96875,0.198438 -2.95176,0 -5.43223,-0.42168 -2.48047,-0.396875 -4.29121,-1.438672 -1.78594,-1.041797 -3.00137,-2.579687 -1.21543,-1.562696 -1.86035,-3.695899 -0.62012,-2.133203 -0.62012,-4.390429 0,-3.175 1.26504,-6.201172 1.26504,-3.050977 3.24942,-4.7625 2.00918,-1.711524 4.61367,-2.430859 2.60449,-0.719336 5.33301,-0.719336 2.82773,0 5.38261,0.669726 2.57969,0.644922 4.36563,2.282031 1.78594,1.63711 2.53008,3.695899 0.76894,2.058789 0.76894,4.440039 0,1.413867 -0.32246,3.150195 l -17.38808,0.02481 q -0.0248,0.396875 -0.0248,0.719336 0,2.678906 1.90996,3.943945 1.90996,1.265039 4.66328,1.265039 1.63711,0 3.72071,-0.37207 2.10839,-0.396875 5.18418,-1.314649 z m -15.25489,-8.036718 h 8.18555 q 0.0248,-0.42168 0.0248,-0.719336 0,-1.289844 -0.47128,-2.207617 -0.44649,-0.917774 -1.31465,-1.339454 -0.84336,-0.421679 -1.90996,-0.421679 -0.74414,0 -1.43868,0.248047 -0.69453,0.223242 -1.26503,0.694531 -0.54571,0.446484 -0.91778,1.041797 -0.37207,0.595312 -0.5457,1.16582 -0.17363,0.545703 -0.34727,1.537891 z"
         id="path7533"
         style="font-size:50.8px;line-height:1.25;font-family:'Eras Bold ITC';-inkscape-font-specification:'Eras Bold ITC';letter-spacing:0px;word-spacing:0px;stroke-width:0.264583" />
      <path
         style="fill:#000000;fill-opacity:1;stroke:none;stroke-width:0.220486px;stroke-linecap:butt;stroke-linejoin:miter;stroke-opacity:1"
         d="m 76.167739,19.106262 c 1.708168,-1.789327 3.416331,-3.57865 4.913415,-5.395331 1.497084,-1.816682 2.783142,-3.660803 4.069168,-5.5048784 0.932547,1.8452454 1.865229,3.6907554 3.059575,5.4738004 1.194346,1.783045 2.650224,3.50368 4.106302,5.224553 -2.693086,-0.167772 -5.385939,-0.335529 -8.077366,-0.301902 -2.691427,0.03363 -5.38136,0.268701 -8.071094,0.503758 z"
         id="path7656"
         inkscape:path-effect="#path-effect7658"
         inkscape:original-d="m 76.167739,19.106262 c 0,0 3.416557,-3.578434 5.124504,-5.367982 1.286247,-1.843855 3.858079,-5.5322274 3.858079,-5.5322274 0,0 1.865315,3.6907114 2.797642,5.5357354 1.456299,1.721093 4.368235,5.162618 4.368235,5.162618 0,0 -5.385952,-0.335322 -8.079258,-0.503315 -2.689514,0.235278 -8.069202,0.705171 -8.069202,0.705171 z"
         sodipodi:nodetypes="czczczc" />
    </g>
  </g>
</svg>
